M48
METRIC
T1C0.800
T2C1.000
%
G90
G05
T1
X22.06Y-50.94
X22.06Y-58.44
X27.06Y-50.94
X27.06Y-58.44
X36.06Y-52.99
X36.06Y-57.89
X49.44Y-33.42
X49.44Y-35.96
X49.44Y-38.5
X49.44Y-41.04
X49.44Y-43.58
X49.44Y-46.12
X49.44Y-48.66
X49.44Y-51.2
X49.44Y-53.74
X49.44Y-56.28
X49.44Y-58.82
X49.44Y-61.36
X49.44Y-63.9
X49.44Y-66.44
X57.06Y-33.42
X57.06Y-35.96
X57.06Y-38.5
X57.06Y-41.04
X57.06Y-43.58
X57.06Y-46.12
X57.06Y-48.66
X57.06Y-51.2
X57.06Y-53.74
X57.06Y-56.28
X57.06Y-58.82
X57.06Y-61.36
X57.06Y-63.9
X57.06Y-66.44
T2
X49.48Y-24.44
X52.02Y-24.44
X54.56Y-24.44
X57.1Y-24.44
M30
